<svg xmlns="http://www.w3.org/2000/svg" width="1325.000000pt" height="250.000000pt" viewBox="0 0 1325.000000 250.000000">
<g transform="translate(0.000000,250.000000) scale(0.100000,-0.100000)">
<g fill="#F8F4ED" stroke="none">
<path d="M985 2086 c-347 -68 -564 -335 -582 -718 -13 -264 58 -461 219 -613
137 -129 290 -188 488 -189 187 0 312 46 426 157 l63 62 5 -40 c3 -22 8 -66
12 -97 l6 -58 94 0 94 0 0 395 0 395 -335 0 -335 0 0 -100 0 -100 220 0 220 0
0 -22 c-1 -76 -51 -189 -116 -258 -173 -185 -521 -173 -690 24 -140 163 -167
488 -58 710 169 346 721 331 825 -21 l12 -43 119 0 c137 0 134 -4 98 112 -88
285 -447 470 -785 404z"/>
<path d="M11150 1325 l0 -735 115 0 115 0 0 735 0 735 -115 0 -115 0 0 -735z"/>
<path d="M12045 2048 c-5 -15 -333 -917 -410 -1128 -29 -80 -67 -182 -84 -228
-17 -46 -31 -88 -31 -93 0 -5 52 -9 118 -9 l117 0 64 180 c55 155 67 180 85
181 79 4 527 6 552 2 29 -4 32 -9 95 -184 l64 -179 122 0 123 0 -44 123 c-185
516 -250 694 -360 995 -69 189 -126 346 -126 348 0 11 -281 3 -285 -8z m255
-573 c60 -175 110 -319 110 -321 0 -2 -102 -4 -226 -4 -211 0 -226 1 -221 18
13 44 222 630 224 628 2 -1 52 -146 113 -321z"/>
<path d="M4239 1823 c-1 -76 -2 -145 -3 -153 -1 -12 -19 -16 -88 -18 l-88 -3
0 -89 0 -89 88 -3 87 -3 5 -350 c5 -334 6 -352 27 -390 60 -111 192 -160 377
-140 l66 7 0 88 0 88 -96 4 c-94 4 -97 5 -125 36 l-29 32 0 315 0 315 125 0
125 0 0 90 0 90 -125 0 -125 0 -1 108 c-1 59 -1 128 1 155 l2 47 -111 0 -111
0 -1 -137z"/>
<path d="M2323 1656 c-166 -38 -264 -128 -299 -273 -6 -28 -9 -54 -6 -57 3 -3
51 -6 107 -6 l101 0 12 44 c21 82 98 126 218 126 144 0 223 -70 224 -196 l0
-51 -61 -7 c-34 -3 -89 -6 -123 -6 -329 -1 -509 -121 -510 -340 -1 -142 54
-228 183 -289 51 -24 67 -26 181 -26 157 0 217 20 298 102 63 62 58 61 65 24
16 -81 90 -121 220 -121 l77 0 0 95 0 95 -38 0 c-70 0 -70 0 -74 315 -5 302
-11 342 -64 427 -77 122 -313 189 -511 144z m355 -660 c-8 -125 -75 -207 -197
-242 -179 -53 -330 65 -266 207 36 79 122 107 334 108 l134 1 -5 -74z"/>
<path d="M3420 1659 c-169 -28 -287 -143 -298 -289 -13 -186 77 -270 336 -316
269 -48 318 -70 328 -149 12 -99 -72 -160 -221 -160 -145 0 -228 50 -250 153
l-7 32 -105 0 -106 0 6 -49 c24 -200 215 -320 492 -308 141 5 210 26 291 87
138 104 157 316 39 436 -63 65 -120 87 -328 125 -223 41 -262 62 -262 138 0
84 75 133 203 133 123 0 209 -50 227 -131 l7 -31 103 0 104 0 -6 38 c-30 216
-263 338 -553 291z"/>
<path d="M7546 1659 c-63 -15 -155 -70 -192 -113 l-34 -40 0 72 0 72 -105 0
-105 0 0 -530 0 -530 109 0 110 0 3 333 c3 317 5 335 26 389 84 209 370 230
459 33 16 -36 18 -79 21 -397 l3 -358 110 0 109 0 0 345 c0 456 -16 533 -128
636 -89 83 -257 121 -386 88z"/>
<path d="M8615 1660 c-248 -50 -404 -255 -405 -531 0 -331 189 -541 500 -556
335 -16 559 205 560 552 0 368 -293 607 -655 535z m252 -202 c165 -78 231
-335 137 -534 -61 -128 -225 -195 -364 -149 -251 83 -287 534 -54 671 80 47
196 52 281 12z"/>
<path d="M9780 1645 c-48 -18 -77 -37 -112 -74 l-48 -50 0 65 0 64 -100 0
-100 0 -2 -42 c0 -24 -2 -262 -3 -530 l-2 -488 109 0 108 0 0 313 c0 323 7
402 41 469 62 122 247 150 341 51 61 -64 62 -74 66 -470 l4 -363 108 0 109 0
3 353 3 352 30 60 c45 90 93 120 194 120 101 0 146 -27 188 -112 l28 -58 3
-357 4 -358 104 0 105 0 -3 398 c-3 385 -4 399 -26 453 -101 252 -457 312
-647 108 -26 -27 -48 -49 -49 -47 -42 57 -67 85 -101 108 -92 63 -239 78 -355
35z"/>
<path d="M5261 1640 c-65 -24 -113 -59 -152 -113 l-29 -40 0 81 0 82 -105 0
-105 0 0 -530 0 -530 110 0 110 0 0 309 c0 276 2 316 19 370 40 130 122 186
269 185 l82 -1 0 103 0 104 -72 0 c-46 -1 -93 -8 -127 -20z"/>
</g>
<g fill="#C75E3E" stroke="none">
<path d="M6100 1808 c-130 -39 -166 -54 -222 -90 -295 -190 -415 -529 -304
-858 68 -200 235 -365 446 -441 90 -32 344 -34 429 -4 52 19 54 22 71 76 49
162 190 301 338 334 42 9 47 17 67 123 69 364 -135 730 -468 838 -92 30 -291
43 -357 22z m273 -173 c237 -62 397 -279 397 -538 0 -121 -16 -156 -88 -192
-119 -62 -209 -156 -254 -270 -29 -72 -54 -83 -189 -84 -485 -5 -723 602 -372
945 136 132 329 185 506 139z"/>
<path d="M6078 1577 c-216 -91 -328 -256 -328 -482 0 -217 127 -397 335 -474
100 -38 295 -30 295 12 0 7 13 40 29 74 40 84 135 177 229 223 66 33 71 37 78
75 40 233 -66 448 -276 556 -90 46 -270 54 -362 16z"/>
</g>
</g>
</svg>
